<?xml version="1.0" encoding="utf-8"?>
<!-- Generator: Adobe Illustrator 24.2.0, SVG Export Plug-In . SVG Version: 6.00 Build 0)  -->
<svg version="1.1" id="Layer_1" xmlns="http://www.w3.org/2000/svg" xmlns:xlink="http://www.w3.org/1999/xlink" x="0px" y="0px"
	 viewBox="0 0 36.5 44.5" style="enable-background:new 0 0 36.5 44.5;" xml:space="preserve">
<style type="text/css">
	.st0{fill:#282F75;}
	.st1{fill:#122E84;}
	.st2{fill:#FFFFFF;}
	.st3{fill:#58BB23;}
	.st4{fill:#2A5CB2;}
	.st5{fill-rule:evenodd;clip-rule:evenodd;fill:#2A5CB2;}
	.st6{fill:#D0D1D0;}
	.st7{fill:#E4E5E5;}
	.st8{fill:#DADADA;}
	.st9{fill:#EAEAEA;}
	.st10{fill:#263338;}
	.st11{fill:#E7505C;}
	.st12{fill:#E0E1E0;}
	.st13{fill:#FABE9E;}
	.st14{fill:#455A64;}
	.st15{fill:#315DAA;}
	.st16{fill:#F1959E;}
	.st17{fill:#F8BFC4;}
	.st18{fill:#191E38;}
	.st19{fill:none;stroke:#A2A2A2;stroke-width:0.5;stroke-linecap:round;stroke-linejoin:round;stroke-miterlimit:10;}
	.st20{fill:#3FBC39;}
	.st21{fill:#1C65E5;}
	.st22{fill:#D9DFEB;}
	.st23{clip-path:url(#SVGID_2_);}
	.st24{fill:none;stroke:#315DAA;stroke-linecap:round;stroke-linejoin:round;stroke-miterlimit:10;}
	.st25{clip-path:url(#SVGID_4_);}
	.st26{fill:none;stroke:#315DAA;stroke-width:2;stroke-linecap:round;stroke-linejoin:round;stroke-miterlimit:10;}
	.st27{fill:#A0BCEA;}
	.st28{clip-path:url(#SVGID_8_);}
	.st29{clip-path:url(#SVGID_14_);}
	.st30{fill:#FFFFFF;stroke:#06287C;stroke-miterlimit:10;}
	.st31{fill:none;stroke:#06287C;stroke-linecap:round;stroke-miterlimit:10;}
	.st32{fill:none;stroke:#06287C;stroke-miterlimit:10;}
	.st33{fill:#FFFFFF;stroke:#06287C;stroke-linecap:round;stroke-linejoin:round;stroke-miterlimit:10;}
	.st34{fill:none;stroke:#06287C;stroke-linecap:round;stroke-linejoin:round;stroke-miterlimit:10;}
	.st35{opacity:0.3;}
	.st36{fill:#445462;}
	.st37{fill:#6786AC;}
	.st38{fill:#011F3D;}
	.st39{clip-path:url(#SVGID_20_);fill:#C32927;}
	.st40{clip-path:url(#SVGID_20_);fill:#005291;}
	.st41{fill:#005291;}
</style>
<g>
	<path class="st22" d="M30.1,40.1c-7.8,6.9-21.8,5.3-26.5-2c-2.3-3.6-2.9-9.5-0.3-12.7c2.9-3.6,7.4-0.9,11.8-4.9
		c4-3.7,2.4-8,6.3-10.4c2.8-1.7,6.9-1.5,9.4,0.1C37.6,14.5,39.3,32.1,30.1,40.1z"/>
	<line class="st31" x1="32.8" y1="1.8" x2="32.8" y2="0"/>
	<line class="st31" x1="32.8" y1="6.2" x2="32.8" y2="4.5"/>
	<line class="st31" x1="31.4" y1="3.1" x2="29.7" y2="3.1"/>
	<line class="st31" x1="35.8" y1="3.1" x2="34.1" y2="3.1"/>
	<path class="st33" d="M25.8,25.1H10.6c0.4-3.1,2.7-5.6,5.7-6.4c-1.1-0.6-1.8-1.8-1.8-3.2c0-2.1,1.7-3.7,3.7-3.7
		c2.1,0,3.7,1.7,3.7,3.7c0,1.4-0.7,2.6-1.8,3.2C23.1,19.4,25.4,22,25.8,25.1z"/>
	<polyline class="st34" points="7.6,11.6 7.6,7.4 12,7.4 	"/>
	<polyline class="st34" points="12,30.3 7.6,30.3 7.6,26.1 	"/>
	<polyline class="st34" points="24.5,7.4 29.1,7.4 29.1,11.6 	"/>
	<polyline class="st34" points="29.1,26.1 29.1,30.3 24.5,30.3 	"/>
	<line class="st33" x1="7.6" y1="15.2" x2="29.1" y2="15.2"/>
	<ellipse class="st31" cx="2" cy="33.4" rx="1.5" ry="1.5"/>
</g>
</svg>
