<svg xmlns="http://www.w3.org/2000/svg" xmlns:xlink="http://www.w3.org/1999/xlink" width="800" zoomAndPan="magnify" viewBox="0 0 600 225" height="300" preserveAspectRatio="xMidYMid meet" version="1.2"><defs><clipPath id="9faf14a6b7"><path d="M 8 63 L 120.441406 63 L 120.441406 177.464844 L 8 177.464844 Z M 8 63 "/></clipPath><clipPath id="72b4c4efbc"><path d="M 106 34.964844 L 111 34.964844 L 111 43 L 106 43 Z M 106 34.964844 "/></clipPath><clipPath id="b9ba6f21dc"><path d="M 3.441406 91 L 60 91 L 60 177.464844 L 3.441406 177.464844 Z M 3.441406 91 "/></clipPath><clipPath id="87a0dce9b3"><path d="M 468 43 L 598 43 L 598 116 L 468 116 Z M 468 43 "/></clipPath><clipPath id="7e43ec1a69"><path d="M 472.296875 39.960938 L 600.957031 55.636719 L 593.191406 119.347656 L 464.53125 103.667969 Z M 472.296875 39.960938 "/></clipPath><clipPath id="2ea2a62b7d"><path d="M 504.148438 43.839844 L 568.894531 51.730469 C 586.488281 53.875 599.011719 69.875 596.867188 87.46875 C 594.722656 105.058594 578.726562 117.582031 561.132812 115.4375 L 496.386719 107.550781 C 478.792969 105.40625 466.269531 89.40625 468.414062 71.8125 C 470.558594 54.222656 486.558594 41.699219 504.148438 43.839844 Z M 504.148438 43.839844 "/></clipPath></defs><g id="6d4899c25d"><g clip-rule="nonzero" clip-path="url(#9faf14a6b7)"><path style=" stroke:none;fill-rule:nonzero;fill:#d9dfeb;fill-opacity:1;" d="M 99.832031 163.375 C 74.890625 185.46875 30.125 180.347656 15.09375 156.96875 C 7.742188 145.441406 5.820312 126.546875 14.136719 116.300781 C 23.410156 104.773438 37.800781 113.417969 51.867188 100.609375 C 64.660156 88.761719 59.542969 74.992188 72.015625 67.308594 C 80.96875 61.863281 94.078125 62.503906 102.070312 67.628906 C 123.816406 81.398438 129.253906 137.757812 99.832031 163.375 Z M 99.832031 163.375 "/></g><g clip-rule="nonzero" clip-path="url(#72b4c4efbc)"><path style="fill:none;stroke-width:1;stroke-linecap:round;stroke-linejoin:miter;stroke:#06287c;stroke-opacity:1;stroke-miterlimit:10;" d="M 32.800386 1.799521 L 32.800386 0.000247054 " transform="matrix(3.197678,0,0,3.202247,3.583691,34.964053)"/></g><path style="fill:none;stroke-width:1;stroke-linecap:round;stroke-linejoin:miter;stroke:#06287c;stroke-opacity:1;stroke-miterlimit:10;" d="M 32.800386 6.199507 L 32.800386 4.500261 " transform="matrix(3.197678,0,0,3.202247,3.583691,34.964053)"/><path style="fill:none;stroke-width:1;stroke-linecap:round;stroke-linejoin:miter;stroke:#06287c;stroke-opacity:1;stroke-miterlimit:10;" d="M 31.400445 3.099877 L 29.699992 3.099877 " transform="matrix(3.197678,0,0,3.202247,3.583691,34.964053)"/><path style="fill:none;stroke-width:1;stroke-linecap:round;stroke-linejoin:miter;stroke:#06287c;stroke-opacity:1;stroke-miterlimit:10;" d="M 35.799389 3.099877 L 34.100158 3.099877 " transform="matrix(3.197678,0,0,3.202247,3.583691,34.964053)"/><path style="fill-rule:nonzero;fill:#ffffff;fill-opacity:1;stroke-width:1;stroke-linecap:round;stroke-linejoin:round;stroke:#06287c;stroke-opacity:1;stroke-miterlimit:10;" d="M 25.799456 25.09981 L 10.600437 25.09981 C 10.999896 22.00018 13.30015 19.499495 16.300374 18.700495 C 15.199722 18.100331 14.499751 16.900002 14.499751 15.499618 C 14.499751 13.400262 16.200204 11.799823 18.199946 11.799823 C 20.299859 11.799823 21.900141 13.500289 21.900141 15.499618 C 21.900141 16.900002 21.200171 18.100331 20.099518 18.700495 C 23.099743 19.399467 25.399996 22.00018 25.799456 25.09981 Z M 25.799456 25.09981 " transform="matrix(3.197678,0,0,3.202247,3.583691,34.964053)"/><path style="fill:none;stroke-width:1;stroke-linecap:round;stroke-linejoin:round;stroke:#06287c;stroke-opacity:1;stroke-miterlimit:10;" d="M 7.600212 11.599768 L 7.600212 7.399836 L 12.000378 7.399836 " transform="matrix(3.197678,0,0,3.202247,3.583691,34.964053)"/><path style="fill:none;stroke-width:1;stroke-linecap:round;stroke-linejoin:round;stroke:#06287c;stroke-opacity:1;stroke-miterlimit:10;" d="M 12.000378 30.300016 L 7.600212 30.300016 L 7.600212 26.100085 " transform="matrix(3.197678,0,0,3.202247,3.583691,34.964053)"/><path style="fill:none;stroke-width:1;stroke-linecap:round;stroke-linejoin:round;stroke:#06287c;stroke-opacity:1;stroke-miterlimit:10;" d="M 24.499684 7.399836 L 29.100191 7.399836 L 29.100191 11.599768 " transform="matrix(3.197678,0,0,3.202247,3.583691,34.964053)"/><path style="fill:none;stroke-width:1;stroke-linecap:round;stroke-linejoin:round;stroke:#06287c;stroke-opacity:1;stroke-miterlimit:10;" d="M 29.100191 26.100085 L 29.100191 30.300016 L 24.499684 30.300016 " transform="matrix(3.197678,0,0,3.202247,3.583691,34.964053)"/><path style="fill:none;stroke-width:1;stroke-linecap:round;stroke-linejoin:round;stroke:#06287c;stroke-opacity:1;stroke-miterlimit:10;" d="M 7.600212 15.199535 L 29.100191 15.199535 " transform="matrix(3.197678,0,0,3.202247,3.583691,34.964053)"/><g clip-rule="nonzero" clip-path="url(#b9ba6f21dc)"><path style="fill:none;stroke-width:1;stroke-linecap:round;stroke-linejoin:miter;stroke:#06287c;stroke-opacity:1;stroke-miterlimit:10;" d="M 3.500557 33.399646 C 3.500557 33.498454 3.490784 33.596042 3.471239 33.69241 C 3.451694 33.788778 3.423597 33.882706 3.385728 33.974194 C 3.347858 34.064463 3.301438 34.151072 3.247688 34.232802 C 3.192717 34.315751 3.130415 34.391382 3.060785 34.460913 C 2.991154 34.530444 2.915416 34.592656 2.833569 34.64755 C 2.751723 34.702443 2.66499 34.747577 2.574592 34.785392 C 2.482973 34.823207 2.388911 34.852484 2.292405 34.870781 C 2.195899 34.890299 2.098172 34.900058 2.000445 34.900058 C 1.901496 34.900058 1.803769 34.890299 1.707263 34.870781 C 1.610758 34.852484 1.516695 34.823207 1.426298 34.785392 C 1.334679 34.747577 1.247946 34.702443 1.166099 34.64755 C 1.084253 34.592656 1.008514 34.530444 0.938884 34.460913 C 0.869253 34.391382 0.806952 34.315751 0.753202 34.232802 C 0.69823 34.151072 0.65181 34.064463 0.613941 33.974194 C 0.576071 33.882706 0.547975 33.788778 0.528429 33.69241 C 0.510106 33.596042 0.500333 33.498454 0.500333 33.399646 C 0.500333 33.302059 0.510106 33.204471 0.528429 33.106883 C 0.547975 33.010515 0.576071 32.916587 0.613941 32.826319 C 0.65181 32.73483 0.69823 32.648221 0.753202 32.566491 C 0.806952 32.484762 0.869253 32.409131 0.938884 32.3396 C 1.008514 32.270069 1.084253 32.207856 1.166099 32.152963 C 1.247946 32.09807 1.334679 32.051716 1.426298 32.013901 C 1.516695 31.976085 1.610758 31.948029 1.707263 31.928511 C 1.803769 31.910214 1.901496 31.900455 2.000445 31.900455 C 2.098172 31.900455 2.195899 31.910214 2.292405 31.928511 C 2.388911 31.948029 2.482973 31.976085 2.574592 32.013901 C 2.66499 32.051716 2.751723 32.09807 2.833569 32.152963 C 2.915416 32.207856 2.991154 32.270069 3.060785 32.3396 C 3.130415 32.409131 3.192717 32.484762 3.247688 32.566491 C 3.301438 32.648221 3.347858 32.73483 3.385728 32.826319 C 3.423597 32.916587 3.451694 33.010515 3.471239 33.106883 C 3.490784 33.204471 3.500557 33.302059 3.500557 33.399646 Z M 3.500557 33.399646 " transform="matrix(3.197678,0,0,3.202247,3.583691,34.964053)"/></g><g clip-rule="nonzero" clip-path="url(#87a0dce9b3)"><g clip-rule="nonzero" clip-path="url(#7e43ec1a69)"><g clip-rule="nonzero" clip-path="url(#2ea2a62b7d)"><path style=" stroke:none;fill-rule:nonzero;fill:#f4cc48;fill-opacity:1;" d="M 472.296875 39.960938 L 600.707031 55.609375 L 592.941406 119.316406 L 464.53125 103.667969 Z M 472.296875 39.960938 "/></g></g></g><g style="fill:#212938;fill-opacity:1;"><g transform="translate(514.815583, 90.286979)"><path style="stroke:none" d="M 17.125 -5.3125 L 9 -6.3125 L 5.671875 0.6875 L 0.53125 0.0625 L 12.21875 -23.09375 L 18.28125 -22.34375 L 23.890625 2.90625 L 18.625 2.265625 Z M 14.65625 -18.578125 L 10.703125 -9.984375 L 16.375 -9.296875 Z M 14.65625 -18.578125 "/></g></g><g style="fill:#212938;fill-opacity:1;"><g transform="translate(537.126814, 93.005802)"><path style="stroke:none" d="M 7.953125 0.96875 L 3.125 0.375 L 6.078125 -23.84375 L 10.90625 -23.25 Z M 7.953125 0.96875 "/></g></g><g style="fill:#212938;fill-opacity:1;"><g transform="translate(130.500595, 145.496916)"><path style="stroke:none" d="M 16.078125 -35.828125 L 0.96875 -35.828125 L 0.96875 -47.125 L 44.015625 -47.125 L 44.015625 -35.828125 L 28.984375 -35.828125 L 28.984375 0 L 16.078125 0 Z M 16.078125 -35.828125 "/></g></g><g style="fill:#212938;fill-opacity:1;"><g transform="translate(172.907736, 145.496916)"><path style="stroke:none" d="M 19.875 -35.171875 C 25.601562 -35.171875 29.882812 -33.769531 32.71875 -30.96875 C 35.5625 -28.175781 36.984375 -24.070312 36.984375 -18.65625 L 36.984375 0 L 31.171875 0 L 27.5 -8.90625 C 26.507812 -5.769531 24.742188 -3.335938 22.203125 -1.609375 C 19.660156 0.109375 16.539062 0.96875 12.84375 0.96875 C 9.269531 0.96875 6.535156 0.117188 4.640625 -1.578125 C 2.753906 -3.273438 1.8125 -5.351562 1.8125 -7.8125 C 1.8125 -11.507812 3.285156 -14.367188 6.234375 -16.390625 C 9.179688 -18.410156 13.796875 -19.894531 20.078125 -20.84375 L 24.65625 -21.5625 C 24.488281 -22.976562 24.015625 -24 23.234375 -24.625 C 22.460938 -25.25 21.300781 -25.5625 19.75 -25.5625 C 18.25 -25.5625 17.128906 -25.257812 16.390625 -24.65625 C 15.660156 -24.050781 15.1875 -23.253906 14.96875 -22.265625 L 2.578125 -22.265625 C 2.921875 -24.847656 3.726562 -27.109375 5 -29.046875 C 6.269531 -30.984375 8.128906 -32.488281 10.578125 -33.5625 C 13.035156 -34.632812 16.132812 -35.171875 19.875 -35.171875 Z M 17.234375 -8.453125 C 18.742188 -8.453125 20.078125 -8.773438 21.234375 -9.421875 C 22.398438 -10.066406 23.316406 -10.90625 23.984375 -11.9375 C 24.648438 -12.96875 24.984375 -14.085938 24.984375 -15.296875 L 23.046875 -14.96875 C 17.316406 -14.03125 14.453125 -12.546875 14.453125 -10.515625 C 14.453125 -9.960938 14.675781 -9.476562 15.125 -9.0625 C 15.582031 -8.65625 16.285156 -8.453125 17.234375 -8.453125 Z M 17.234375 -8.453125 "/></g></g><g style="fill:#212938;fill-opacity:1;"><g transform="translate(210.086535, 145.496916)"><path style="stroke:none" d="M 16.203125 -47.125 L 16.203125 0 L 3.8125 0 L 3.8125 -47.125 Z M 16.203125 -47.125 "/></g></g><g style="fill:#212938;fill-opacity:1;"><g transform="translate(227.51386, 145.496916)"><path style="stroke:none" d="M 38.65625 -19.296875 C 38.65625 -17.535156 38.570312 -15.941406 38.40625 -14.515625 L 13.5625 -14.515625 C 13.851562 -12.410156 14.523438 -10.90625 15.578125 -10 C 16.640625 -9.101562 17.96875 -8.65625 19.5625 -8.65625 C 21.238281 -8.65625 22.484375 -8.921875 23.296875 -9.453125 C 24.117188 -9.992188 24.742188 -10.71875 25.171875 -11.625 L 38.078125 -11.625 C 37.773438 -9.382812 36.925781 -7.304688 35.53125 -5.390625 C 34.132812 -3.472656 32.175781 -1.929688 29.65625 -0.765625 C 27.144531 0.390625 24.035156 0.96875 20.328125 0.96875 C 16.410156 0.96875 13.050781 0.25 10.25 -1.1875 C 7.457031 -2.632812 5.316406 -4.671875 3.828125 -7.296875 C 2.347656 -9.921875 1.609375 -12.953125 1.609375 -16.390625 L 1.609375 -17.8125 C 1.609375 -21.300781 2.347656 -24.347656 3.828125 -26.953125 C 5.316406 -29.554688 7.46875 -31.578125 10.28125 -33.015625 C 13.101562 -34.453125 16.519531 -35.171875 20.53125 -35.171875 C 24.3125 -35.171875 27.554688 -34.484375 30.265625 -33.109375 C 32.984375 -31.734375 35.0625 -29.847656 36.5 -27.453125 C 37.9375 -25.066406 38.65625 -22.347656 38.65625 -19.296875 Z M 20.203125 -25.953125 C 18.441406 -25.953125 17.007812 -25.5625 15.90625 -24.78125 C 14.8125 -24.007812 14.070312 -22.675781 13.6875 -20.78125 L 26.203125 -20.78125 C 25.941406 -22.632812 25.304688 -23.957031 24.296875 -24.75 C 23.285156 -25.550781 21.921875 -25.953125 20.203125 -25.953125 Z M 20.203125 -25.953125 "/></g></g><g style="fill:#212938;fill-opacity:1;"><g transform="translate(265.209027, 145.496916)"><path style="stroke:none" d="M 25.953125 -35.171875 C 29.648438 -35.171875 32.691406 -33.867188 35.078125 -31.265625 C 37.460938 -28.671875 38.65625 -24.875 38.65625 -19.875 L 38.65625 0 L 26.265625 0 L 26.265625 -18.078125 C 26.265625 -20.359375 25.878906 -21.945312 25.109375 -22.84375 C 24.335938 -23.75 23.195312 -24.203125 21.6875 -24.203125 C 20.09375 -24.203125 18.78125 -23.609375 17.75 -22.421875 C 16.71875 -21.242188 16.203125 -19.453125 16.203125 -17.046875 L 16.203125 0 L 3.75 0 L 3.75 -34.203125 L 9.546875 -34.203125 L 13.6875 -24.078125 C 14.539062 -27.910156 16.066406 -30.71875 18.265625 -32.5 C 20.460938 -34.28125 23.023438 -35.171875 25.953125 -35.171875 Z M 25.953125 -35.171875 "/></g></g><g style="fill:#212938;fill-opacity:1;"><g transform="translate(304.195143, 145.496916)"><path style="stroke:none" d="M 31.625 -34.203125 L 31.625 -23.875 L 20.078125 -23.875 L 20.078125 -15.421875 C 20.078125 -13.878906 20.226562 -12.6875 20.53125 -11.84375 C 20.832031 -11 21.378906 -10.425781 22.171875 -10.125 C 22.960938 -9.832031 24.113281 -9.6875 25.625 -9.6875 C 26.875 -9.6875 28.023438 -9.75 29.078125 -9.875 C 30.128906 -10 31 -10.128906 31.6875 -10.265625 L 31.6875 0 C 30.875 0.175781 29.710938 0.378906 28.203125 0.609375 C 26.703125 0.847656 24.914062 0.96875 22.84375 0.96875 C 17.550781 0.96875 13.710938 -0.203125 11.328125 -2.546875 C 8.941406 -4.890625 7.75 -8.582031 7.75 -13.625 L 7.75 -23.875 L 0.96875 -23.875 L 0.96875 -34.203125 L 8.203125 -34.203125 L 12.96875 -44.34375 L 20.078125 -44.34375 L 20.078125 -34.203125 Z M 31.625 -34.203125 "/></g></g><g style="fill:#212938;fill-opacity:1;"><g transform="translate(335.56469, 145.496916)"><path style="stroke:none" d="M 1.15625 -16.078125 L 14.203125 -16.078125 C 14.460938 -14.742188 14.914062 -13.601562 15.5625 -12.65625 C 16.207031 -11.707031 17.21875 -10.992188 18.59375 -10.515625 C 19.96875 -10.046875 21.835938 -9.8125 24.203125 -9.8125 C 26.609375 -9.8125 28.46875 -10.003906 29.78125 -10.390625 C 31.09375 -10.773438 32.019531 -11.269531 32.5625 -11.875 C 33.101562 -12.476562 33.375 -13.082031 33.375 -13.6875 C 33.375 -14.375 33.144531 -14.992188 32.6875 -15.546875 C 32.238281 -16.109375 31.226562 -16.660156 29.65625 -17.203125 C 28.082031 -17.742188 25.617188 -18.269531 22.265625 -18.78125 C 16.972656 -19.644531 12.851562 -20.765625 9.90625 -22.140625 C 6.957031 -23.515625 4.890625 -25.171875 3.703125 -27.109375 C 2.523438 -29.046875 1.9375 -31.265625 1.9375 -33.765625 C 1.9375 -36.429688 2.664062 -38.847656 4.125 -41.015625 C 5.59375 -43.191406 7.851562 -44.914062 10.90625 -46.1875 C 13.957031 -47.457031 17.894531 -48.09375 22.71875 -48.09375 C 27.75 -48.09375 31.859375 -47.367188 35.046875 -45.921875 C 38.234375 -44.484375 40.632812 -42.503906 42.25 -39.984375 C 43.863281 -37.460938 44.796875 -34.570312 45.046875 -31.3125 L 32.140625 -31.3125 C 31.878906 -33.195312 31.113281 -34.664062 29.84375 -35.71875 C 28.582031 -36.78125 26.316406 -37.3125 23.046875 -37.3125 C 19.816406 -37.3125 17.609375 -36.910156 16.421875 -36.109375 C 15.242188 -35.316406 14.65625 -34.445312 14.65625 -33.5 C 14.65625 -32.851562 14.910156 -32.226562 15.421875 -31.625 C 15.941406 -31.019531 17.050781 -30.4375 18.75 -29.875 C 20.445312 -29.320312 23.039062 -28.765625 26.53125 -28.203125 C 31.5625 -27.472656 35.492188 -26.429688 38.328125 -25.078125 C 41.171875 -23.722656 43.1875 -22.078125 44.375 -20.140625 C 45.5625 -18.203125 46.15625 -15.941406 46.15625 -13.359375 C 46.15625 -10.691406 45.410156 -8.269531 43.921875 -6.09375 C 42.441406 -3.925781 40.117188 -2.207031 36.953125 -0.9375 C 33.785156 0.332031 29.664062 0.96875 24.59375 0.96875 C 19.164062 0.96875 14.785156 0.257812 11.453125 -1.15625 C 8.117188 -2.582031 5.632812 -4.570312 4 -7.125 C 2.363281 -9.6875 1.414062 -12.671875 1.15625 -16.078125 Z M 1.15625 -16.078125 "/></g></g><g style="fill:#212938;fill-opacity:1;"><g transform="translate(380.553731, 145.496916)"><path style="stroke:none" d="M 18.84375 -13.75 L 25.234375 -34.203125 L 37.625 -34.203125 L 26.328125 -2 C 24.953125 1.914062 23.46875 5.023438 21.875 7.328125 C 20.289062 9.628906 18.453125 11.273438 16.359375 12.265625 C 14.273438 13.253906 11.769531 13.75 8.84375 13.75 C 7.507812 13.75 6.238281 13.660156 5.03125 13.484375 C 3.832031 13.316406 2.820312 13.125 2 12.90625 L 2 2.96875 C 2.820312 3.050781 3.640625 3.125 4.453125 3.1875 C 5.273438 3.257812 6.003906 3.296875 6.640625 3.296875 C 8.023438 3.296875 9.113281 3.015625 9.90625 2.453125 C 10.707031 1.890625 11.363281 0.8125 11.875 -0.78125 L -0.640625 -34.203125 L 12.390625 -34.203125 Z M 18.84375 -13.75 "/></g></g><g style="fill:#212938;fill-opacity:1;"><g transform="translate(414.956996, 145.496916)"><path style="stroke:none" d="M 25.953125 -35.171875 C 29.648438 -35.171875 32.691406 -33.867188 35.078125 -31.265625 C 37.460938 -28.671875 38.65625 -24.875 38.65625 -19.875 L 38.65625 0 L 26.265625 0 L 26.265625 -18.078125 C 26.265625 -20.359375 25.878906 -21.945312 25.109375 -22.84375 C 24.335938 -23.75 23.195312 -24.203125 21.6875 -24.203125 C 20.09375 -24.203125 18.78125 -23.609375 17.75 -22.421875 C 16.71875 -21.242188 16.203125 -19.453125 16.203125 -17.046875 L 16.203125 0 L 3.75 0 L 3.75 -34.203125 L 9.546875 -34.203125 L 13.6875 -24.078125 C 14.539062 -27.910156 16.066406 -30.71875 18.265625 -32.5 C 20.460938 -34.28125 23.023438 -35.171875 25.953125 -35.171875 Z M 25.953125 -35.171875 "/></g></g><g style="fill:#212938;fill-opacity:1;"><g transform="translate(453.943112, 145.496916)"><path style="stroke:none" d="M 1.609375 -16.390625 L 1.609375 -17.8125 C 1.609375 -21.300781 2.347656 -24.347656 3.828125 -26.953125 C 5.316406 -29.554688 7.46875 -31.578125 10.28125 -33.015625 C 13.101562 -34.453125 16.5 -35.171875 20.46875 -35.171875 C 25.882812 -35.171875 30.140625 -33.835938 33.234375 -31.171875 C 36.335938 -28.503906 38.125 -24.867188 38.59375 -20.265625 L 25.890625 -20.265625 C 25.242188 -23.234375 23.367188 -24.71875 20.265625 -24.71875 C 18.421875 -24.71875 16.925781 -24.09375 15.78125 -22.84375 C 14.644531 -21.601562 14.078125 -19.691406 14.078125 -17.109375 C 14.078125 -14.523438 14.644531 -12.609375 15.78125 -11.359375 C 16.925781 -10.109375 18.421875 -9.484375 20.265625 -9.484375 C 23.367188 -9.484375 25.265625 -10.96875 25.953125 -13.9375 L 38.65625 -13.9375 C 38.1875 -9.332031 36.398438 -5.695312 33.296875 -3.03125 C 30.203125 -0.363281 25.925781 0.96875 20.46875 0.96875 C 16.5 0.96875 13.101562 0.25 10.28125 -1.1875 C 7.46875 -2.632812 5.316406 -4.671875 3.828125 -7.296875 C 2.347656 -9.921875 1.609375 -12.953125 1.609375 -16.390625 Z M 1.609375 -16.390625 "/></g></g></g></svg>